# MagicaVoxel @ Ephtracy

# group
o 

# material
mtllib coin.vox.mtl
usemtl palette

# normals
vn -1 0 0
vn 1 0 0
vn 0 0 1
vn 0 0 -1
vn 0 -1 0
vn 0 1 0

# texcoords
vt 0.0371094 0.5
vt 0.0410156 0.5
vt 0.0449219 0.5

# verts
v -0.6 0.3 0.2
v -0.6 0.3 0.1
v -0.6 0.3 0
v -0.6 0.3 -0.1
v -0.6 0.3 -0.2
v -0.6 0.3 -0.3
v -0.6 0.9 0.2
v -0.6 0.9 0.1
v -0.6 0.9 0
v -0.6 0.9 -0.1
v -0.6 0.9 -0.2
v -0.6 0.9 -0.3
v -0.5 0.1 0.2
v -0.5 0.1 0.1
v -0.5 0.1 0
v -0.5 0.1 -0.1
v -0.5 0.1 -0.2
v -0.5 0.1 -0.3
v -0.5 0.3 0.2
v -0.5 0.3 0.1
v -0.5 0.3 0
v -0.5 0.3 -0.1
v -0.5 0.3 -0.2
v -0.5 0.3 -0.3
v -0.5 0.9 0.2
v -0.5 0.9 0.1
v -0.5 0.9 0
v -0.5 0.9 -0.1
v -0.5 0.9 -0.2
v -0.5 0.9 -0.3
v -0.5 1.1 0.2
v -0.5 1.1 0.1
v -0.5 1.1 0
v -0.5 1.1 -0.1
v -0.5 1.1 -0.2
v -0.5 1.1 -0.3
v -0.4 0.2 0
v -0.4 0.2 -0.1
v -0.4 0.3 0
v -0.4 0.3 -0.1
v -0.4 0.9 0
v -0.4 0.9 -0.1
v -0.4 1 0
v -0.4 1 -0.1
v -0.3 0 0.2
v -0.3 0 0.1
v -0.3 0 0
v -0.3 0 -0.1
v -0.3 0 -0.2
v -0.3 0 -0.3
v -0.3 0.1 0.2
v -0.3 0.1 0.1
v -0.3 0.1 0
v -0.3 0.1 -0.1
v -0.3 0.1 -0.2
v -0.3 0.1 -0.3
v -0.3 0.2 0
v -0.3 0.2 -0.1
v -0.3 1 0
v -0.3 1 -0.1
v -0.3 1.1 0.2
v -0.3 1.1 0.1
v -0.3 1.1 0
v -0.3 1.1 -0.1
v -0.3 1.1 -0.2
v -0.3 1.1 -0.3
v -0.3 1.2 0.2
v -0.3 1.2 0.1
v -0.3 1.2 0
v -0.3 1.2 -0.1
v -0.3 1.2 -0.2
v -0.3 1.2 -0.3
v 0.2 0.2 0.2
v 0.2 0.2 0.1
v 0.2 0.2 -0.2
v 0.2 0.2 -0.3
v 0.2 0.3 0.2
v 0.2 0.3 0.1
v 0.2 0.3 -0.2
v 0.2 0.3 -0.3
v 0.2 0.9 0.2
v 0.2 0.9 0.1
v 0.2 0.9 -0.2
v 0.2 0.9 -0.3
v 0.2 1 0.2
v 0.2 1 0.1
v 0.2 1 -0.2
v 0.2 1 -0.3
v 0.3 0.3 0.2
v 0.3 0.3 0.1
v 0.3 0.3 -0.2
v 0.3 0.3 -0.3
v 0.3 0.4 0.2
v 0.3 0.4 0.1
v 0.3 0.4 -0.2
v 0.3 0.4 -0.3
v 0.3 0.8 0.2
v 0.3 0.8 0.1
v 0.3 0.8 -0.2
v 0.3 0.8 -0.3
v 0.3 0.9 0.2
v 0.3 0.9 0.1
v 0.3 0.9 -0.2
v 0.3 0.9 -0.3
v 0.4 0.4 0.2
v 0.4 0.4 0.1
v 0.4 0.4 -0.2
v 0.4 0.4 -0.3
v 0.4 0.8 0.2
v 0.4 0.8 0.1
v 0.4 0.8 -0.2
v 0.4 0.8 -0.3
v -0.4 0.4 0.2
v -0.4 0.4 0.1
v -0.4 0.4 -0.2
v -0.4 0.4 -0.3
v -0.4 0.8 0.2
v -0.4 0.8 0.1
v -0.4 0.8 -0.2
v -0.4 0.8 -0.3
v -0.3 0.3 0.2
v -0.3 0.3 0.1
v -0.3 0.3 -0.2
v -0.3 0.3 -0.3
v -0.3 0.4 0.2
v -0.3 0.4 0.1
v -0.3 0.4 -0.2
v -0.3 0.4 -0.3
v -0.3 0.8 0.2
v -0.3 0.8 0.1
v -0.3 0.8 -0.2
v -0.3 0.8 -0.3
v -0.3 0.9 0.2
v -0.3 0.9 0.1
v -0.3 0.9 -0.2
v -0.3 0.9 -0.3
v -0.2 0.2 0.2
v -0.2 0.2 0.1
v -0.2 0.2 -0.2
v -0.2 0.2 -0.3
v -0.2 0.3 0.2
v -0.2 0.3 0.1
v -0.2 0.3 -0.2
v -0.2 0.3 -0.3
v -0.2 0.9 0.2
v -0.2 0.9 0.1
v -0.2 0.9 -0.2
v -0.2 0.9 -0.3
v -0.2 1 0.2
v -0.2 1 0.1
v -0.2 1 -0.2
v -0.2 1 -0.3
v 0.3 0 0.2
v 0.3 0 0.1
v 0.3 0 0
v 0.3 0 -0.1
v 0.3 0 -0.2
v 0.3 0 -0.3
v 0.3 0.1 0.2
v 0.3 0.1 0.1
v 0.3 0.1 0
v 0.3 0.1 -0.1
v 0.3 0.1 -0.2
v 0.3 0.1 -0.3
v 0.3 0.2 0
v 0.3 0.2 -0.1
v 0.3 1 0
v 0.3 1 -0.1
v 0.3 1.1 0.2
v 0.3 1.1 0.1
v 0.3 1.1 0
v 0.3 1.1 -0.1
v 0.3 1.1 -0.2
v 0.3 1.1 -0.3
v 0.3 1.2 0.2
v 0.3 1.2 0.1
v 0.3 1.2 0
v 0.3 1.2 -0.1
v 0.3 1.2 -0.2
v 0.3 1.2 -0.3
v 0.4 0.2 0
v 0.4 0.2 -0.1
v 0.4 0.3 0
v 0.4 0.3 -0.1
v 0.4 0.9 0
v 0.4 0.9 -0.1
v 0.4 1 0
v 0.4 1 -0.1
v 0.5 0.1 0.2
v 0.5 0.1 0.1
v 0.5 0.1 0
v 0.5 0.1 -0.1
v 0.5 0.1 -0.2
v 0.5 0.1 -0.3
v 0.5 0.3 0.2
v 0.5 0.3 0.1
v 0.5 0.3 0
v 0.5 0.3 -0.1
v 0.5 0.3 -0.2
v 0.5 0.3 -0.3
v 0.5 0.9 0.2
v 0.5 0.9 0.1
v 0.5 0.9 0
v 0.5 0.9 -0.1
v 0.5 0.9 -0.2
v 0.5 0.9 -0.3
v 0.5 1.1 0.2
v 0.5 1.1 0.1
v 0.5 1.1 0
v 0.5 1.1 -0.1
v 0.5 1.1 -0.2
v 0.5 1.1 -0.3
v 0.6 0.3 0.2
v 0.6 0.3 0.1
v 0.6 0.3 0
v 0.6 0.3 -0.1
v 0.6 0.3 -0.2
v 0.6 0.3 -0.3
v 0.6 0.9 0.2
v 0.6 0.9 0.1
v 0.6 0.9 0
v 0.6 0.9 -0.1
v 0.6 0.9 -0.2
v 0.6 0.9 -0.3
v -0.6 0.3 0.2
v -0.6 0.9 0.2
v -0.5 0.1 0.2
v -0.5 0.3 0.2
v -0.5 0.9 0.2
v -0.5 1.1 0.2
v -0.4 0.2 0.2
v -0.4 0.3 0.2
v -0.4 0.4 0.2
v -0.4 0.8 0.2
v -0.4 0.9 0.2
v -0.4 1 0.2
v -0.3 0 0.2
v -0.3 0.1 0.2
v -0.3 0.2 0.2
v -0.3 0.3 0.2
v -0.3 0.4 0.2
v -0.3 0.8 0.2
v -0.3 0.9 0.2
v -0.3 1 0.2
v -0.3 1.1 0.2
v -0.3 1.2 0.2
v -0.2 0.2 0.2
v -0.2 0.3 0.2
v -0.2 0.9 0.2
v -0.2 1 0.2
v 0.2 0.2 0.2
v 0.2 0.3 0.2
v 0.2 0.9 0.2
v 0.2 1 0.2
v 0.3 0 0.2
v 0.3 0.1 0.2
v 0.3 0.2 0.2
v 0.3 0.3 0.2
v 0.3 0.4 0.2
v 0.3 0.8 0.2
v 0.3 0.9 0.2
v 0.3 1 0.2
v 0.3 1.1 0.2
v 0.3 1.2 0.2
v 0.4 0.2 0.2
v 0.4 0.3 0.2
v 0.4 0.4 0.2
v 0.4 0.8 0.2
v 0.4 0.9 0.2
v 0.4 1 0.2
v 0.5 0.1 0.2
v 0.5 0.3 0.2
v 0.5 0.9 0.2
v 0.5 1.1 0.2
v 0.6 0.3 0.2
v 0.6 0.9 0.2
v -0.4 0.4 0.1
v -0.4 0.8 0.1
v -0.3 0.3 0.1
v -0.3 0.4 0.1
v -0.3 0.8 0.1
v -0.3 0.9 0.1
v -0.2 0.2 0.1
v -0.2 0.3 0.1
v -0.2 0.9 0.1
v -0.2 1 0.1
v -0.1 0.5 0.1
v -0.1 0.6 0.1
v -0.1 0.7 0.1
v -5.96046e-08 0.5 0.1
v -5.96046e-08 0.6 0.1
v -5.96046e-08 0.7 0.1
v 0.1 0.5 0.1
v 0.1 0.6 0.1
v 0.1 0.7 0.1
v 0.2 0.2 0.1
v 0.2 0.3 0.1
v 0.2 0.9 0.1
v 0.2 1 0.1
v 0.3 0.3 0.1
v 0.3 0.4 0.1
v 0.3 0.8 0.1
v 0.3 0.9 0.1
v 0.4 0.4 0.1
v 0.4 0.8 0.1
v -0.6 0.3 -0.1
v -0.6 0.9 -0.1
v -0.5 0.1 -0.1
v -0.5 0.3 -0.1
v -0.5 0.9 -0.1
v -0.5 1.1 -0.1
v -0.4 0.2 -0.1
v -0.4 0.3 -0.1
v -0.4 0.9 -0.1
v -0.4 1 -0.1
v -0.3 0 -0.1
v -0.3 0.1 -0.1
v -0.3 0.2 -0.1
v -0.3 1 -0.1
v -0.3 1.1 -0.1
v -0.3 1.2 -0.1
v 0.3 0 -0.1
v 0.3 0.1 -0.1
v 0.3 0.2 -0.1
v 0.3 1 -0.1
v 0.3 1.1 -0.1
v 0.3 1.2 -0.1
v 0.4 0.2 -0.1
v 0.4 0.3 -0.1
v 0.4 0.9 -0.1
v 0.4 1 -0.1
v 0.5 0.1 -0.1
v 0.5 0.3 -0.1
v 0.5 0.9 -0.1
v 0.5 1.1 -0.1
v 0.6 0.3 -0.1
v 0.6 0.9 -0.1
v -0.6 0.3 0
v -0.6 0.9 0
v -0.5 0.1 0
v -0.5 0.3 0
v -0.5 0.9 0
v -0.5 1.1 0
v -0.4 0.2 0
v -0.4 0.3 0
v -0.4 0.9 0
v -0.4 1 0
v -0.3 0 0
v -0.3 0.1 0
v -0.3 0.2 0
v -0.3 1 0
v -0.3 1.1 0
v -0.3 1.2 0
v 0.3 0 0
v 0.3 0.1 0
v 0.3 0.2 0
v 0.3 1 0
v 0.3 1.1 0
v 0.3 1.2 0
v 0.4 0.2 0
v 0.4 0.3 0
v 0.4 0.9 0
v 0.4 1 0
v 0.5 0.1 0
v 0.5 0.3 0
v 0.5 0.9 0
v 0.5 1.1 0
v 0.6 0.3 0
v 0.6 0.9 0
v -0.4 0.4 -0.2
v -0.4 0.8 -0.2
v -0.3 0.3 -0.2
v -0.3 0.4 -0.2
v -0.3 0.8 -0.2
v -0.3 0.9 -0.2
v -0.2 0.2 -0.2
v -0.2 0.3 -0.2
v -0.2 0.9 -0.2
v -0.2 1 -0.2
v 0.2 0.2 -0.2
v 0.2 0.3 -0.2
v 0.2 0.9 -0.2
v 0.2 1 -0.2
v 0.3 0.3 -0.2
v 0.3 0.4 -0.2
v 0.3 0.8 -0.2
v 0.3 0.9 -0.2
v 0.4 0.4 -0.2
v 0.4 0.8 -0.2
v -0.6 0.3 -0.3
v -0.6 0.9 -0.3
v -0.5 0.1 -0.3
v -0.5 0.3 -0.3
v -0.5 0.9 -0.3
v -0.5 1.1 -0.3
v -0.4 0.2 -0.3
v -0.4 0.3 -0.3
v -0.4 0.4 -0.3
v -0.4 0.8 -0.3
v -0.4 0.9 -0.3
v -0.4 1 -0.3
v -0.3 0 -0.3
v -0.3 0.1 -0.3
v -0.3 0.2 -0.3
v -0.3 0.3 -0.3
v -0.3 0.4 -0.3
v -0.3 0.8 -0.3
v -0.3 0.9 -0.3
v -0.3 1 -0.3
v -0.3 1.1 -0.3
v -0.3 1.2 -0.3
v -0.2 0.2 -0.3
v -0.2 0.3 -0.3
v -0.2 0.9 -0.3
v -0.2 1 -0.3
v 0.2 0.2 -0.3
v 0.2 0.3 -0.3
v 0.2 0.9 -0.3
v 0.2 1 -0.3
v 0.3 0 -0.3
v 0.3 0.1 -0.3
v 0.3 0.2 -0.3
v 0.3 0.3 -0.3
v 0.3 0.4 -0.3
v 0.3 0.8 -0.3
v 0.3 0.9 -0.3
v 0.3 1 -0.3
v 0.3 1.1 -0.3
v 0.3 1.2 -0.3
v 0.4 0.2 -0.3
v 0.4 0.3 -0.3
v 0.4 0.4 -0.3
v 0.4 0.8 -0.3
v 0.4 0.9 -0.3
v 0.4 1 -0.3
v 0.5 0.1 -0.3
v 0.5 0.3 -0.3
v 0.5 0.9 -0.3
v 0.5 1.1 -0.3
v 0.6 0.3 -0.3
v 0.6 0.9 -0.3
v -0.3 0 0.2
v 0.3 0 0.2
v -0.3 0 0.1
v 0.3 0 0.1
v -0.3 0 0
v 0.3 0 0
v -0.3 0 -0.1
v 0.3 0 -0.1
v -0.3 0 -0.2
v 0.3 0 -0.2
v -0.3 0 -0.3
v 0.3 0 -0.3
v -0.5 0.1 0.2
v -0.3 0.1 0.2
v 0.3 0.1 0.2
v 0.5 0.1 0.2
v -0.5 0.1 0.1
v -0.3 0.1 0.1
v 0.3 0.1 0.1
v 0.5 0.1 0.1
v -0.5 0.1 0
v -0.3 0.1 0
v 0.3 0.1 0
v 0.5 0.1 0
v -0.5 0.1 -0.1
v -0.3 0.1 -0.1
v 0.3 0.1 -0.1
v 0.5 0.1 -0.1
v -0.5 0.1 -0.2
v -0.3 0.1 -0.2
v 0.3 0.1 -0.2
v 0.5 0.1 -0.2
v -0.5 0.1 -0.3
v -0.3 0.1 -0.3
v 0.3 0.1 -0.3
v 0.5 0.1 -0.3
v -0.4 0.2 0
v -0.3 0.2 0
v 0.3 0.2 0
v 0.4 0.2 0
v -0.4 0.2 -0.1
v -0.3 0.2 -0.1
v 0.3 0.2 -0.1
v 0.4 0.2 -0.1
v -0.6 0.3 0.2
v -0.5 0.3 0.2
v 0.5 0.3 0.2
v 0.6 0.3 0.2
v -0.6 0.3 0.1
v -0.5 0.3 0.1
v 0.5 0.3 0.1
v 0.6 0.3 0.1
v -0.6 0.3 0
v -0.5 0.3 0
v -0.4 0.3 0
v 0.4 0.3 0
v 0.5 0.3 0
v 0.6 0.3 0
v -0.6 0.3 -0.1
v -0.5 0.3 -0.1
v -0.4 0.3 -0.1
v 0.4 0.3 -0.1
v 0.5 0.3 -0.1
v 0.6 0.3 -0.1
v -0.6 0.3 -0.2
v -0.5 0.3 -0.2
v 0.5 0.3 -0.2
v 0.6 0.3 -0.2
v -0.6 0.3 -0.3
v -0.5 0.3 -0.3
v 0.5 0.3 -0.3
v 0.6 0.3 -0.3
v -0.4 0.8 0.2
v -0.3 0.8 0.2
v 0.3 0.8 0.2
v 0.4 0.8 0.2
v -0.4 0.8 0.1
v -0.3 0.8 0.1
v 0.3 0.8 0.1
v 0.4 0.8 0.1
v -0.4 0.8 -0.2
v -0.3 0.8 -0.2
v 0.3 0.8 -0.2
v 0.4 0.8 -0.2
v -0.4 0.8 -0.3
v -0.3 0.8 -0.3
v 0.3 0.8 -0.3
v 0.4 0.8 -0.3
v -0.3 0.9 0.2
v -0.2 0.9 0.2
v 0.2 0.9 0.2
v 0.3 0.9 0.2
v -0.3 0.9 0.1
v -0.2 0.9 0.1
v 0.2 0.9 0.1
v 0.3 0.9 0.1
v -0.3 0.9 -0.2
v -0.2 0.9 -0.2
v 0.2 0.9 -0.2
v 0.3 0.9 -0.2
v -0.3 0.9 -0.3
v -0.2 0.9 -0.3
v 0.2 0.9 -0.3
v 0.3 0.9 -0.3
v -0.2 1 0.2
v 0.2 1 0.2
v -0.2 1 0.1
v 0.2 1 0.1
v -0.2 1 -0.2
v 0.2 1 -0.2
v -0.2 1 -0.3
v 0.2 1 -0.3
v -0.2 0.2 0.2
v 0.2 0.2 0.2
v -0.2 0.2 0.1
v 0.2 0.2 0.1
v -0.2 0.2 -0.2
v 0.2 0.2 -0.2
v -0.2 0.2 -0.3
v 0.2 0.2 -0.3
v -0.3 0.3 0.2
v -0.2 0.3 0.2
v 0.2 0.3 0.2
v 0.3 0.3 0.2
v -0.3 0.3 0.1
v -0.2 0.3 0.1
v 0.2 0.3 0.1
v 0.3 0.3 0.1
v -0.3 0.3 -0.2
v -0.2 0.3 -0.2
v 0.2 0.3 -0.2
v 0.3 0.3 -0.2
v -0.3 0.3 -0.3
v -0.2 0.3 -0.3
v 0.2 0.3 -0.3
v 0.3 0.3 -0.3
v -0.4 0.4 0.2
v -0.3 0.4 0.2
v 0.3 0.4 0.2
v 0.4 0.4 0.2
v -0.4 0.4 0.1
v -0.3 0.4 0.1
v 0.3 0.4 0.1
v 0.4 0.4 0.1
v -0.4 0.4 -0.2
v -0.3 0.4 -0.2
v 0.3 0.4 -0.2
v 0.4 0.4 -0.2
v -0.4 0.4 -0.3
v -0.3 0.4 -0.3
v 0.3 0.4 -0.3
v 0.4 0.4 -0.3
v -0.6 0.9 0.2
v -0.5 0.9 0.2
v 0.5 0.9 0.2
v 0.6 0.9 0.2
v -0.6 0.9 0.1
v -0.5 0.9 0.1
v 0.5 0.9 0.1
v 0.6 0.9 0.1
v -0.6 0.9 0
v -0.5 0.9 0
v -0.4 0.9 0
v 0.4 0.9 0
v 0.5 0.9 0
v 0.6 0.9 0
v -0.6 0.9 -0.1
v -0.5 0.9 -0.1
v -0.4 0.9 -0.1
v 0.4 0.9 -0.1
v 0.5 0.9 -0.1
v 0.6 0.9 -0.1
v -0.6 0.9 -0.2
v -0.5 0.9 -0.2
v 0.5 0.9 -0.2
v 0.6 0.9 -0.2
v -0.6 0.9 -0.3
v -0.5 0.9 -0.3
v 0.5 0.9 -0.3
v 0.6 0.9 -0.3
v -0.4 1 0
v -0.3 1 0
v 0.3 1 0
v 0.4 1 0
v -0.4 1 -0.1
v -0.3 1 -0.1
v 0.3 1 -0.1
v 0.4 1 -0.1
v -0.5 1.1 0.2
v -0.3 1.1 0.2
v 0.3 1.1 0.2
v 0.5 1.1 0.2
v -0.5 1.1 0.1
v -0.3 1.1 0.1
v 0.3 1.1 0.1
v 0.5 1.1 0.1
v -0.5 1.1 0
v -0.3 1.1 0
v 0.3 1.1 0
v 0.5 1.1 0
v -0.5 1.1 -0.1
v -0.3 1.1 -0.1
v 0.3 1.1 -0.1
v 0.5 1.1 -0.1
v -0.5 1.1 -0.2
v -0.3 1.1 -0.2
v 0.3 1.1 -0.2
v 0.5 1.1 -0.2
v -0.5 1.1 -0.3
v -0.3 1.1 -0.3
v 0.3 1.1 -0.3
v 0.5 1.1 -0.3
v -0.3 1.2 0.2
v 0.3 1.2 0.2
v -0.3 1.2 0.1
v 0.3 1.2 0.1
v -0.3 1.2 0
v 0.3 1.2 0
v -0.3 1.2 -0.1
v 0.3 1.2 -0.1
v -0.3 1.2 -0.2
v 0.3 1.2 -0.2
v -0.3 1.2 -0.3
v 0.3 1.2 -0.3

# faces
f 7/3/1 2/3/1 1/3/1
f 8/2/1 3/2/1 2/2/1
f 8/3/1 2/3/1 7/3/1
f 9/2/1 3/2/1 8/2/1
f 10/2/1 5/2/1 4/2/1
f 11/3/1 6/3/1 5/3/1
f 11/2/1 5/2/1 10/2/1
f 12/3/1 6/3/1 11/3/1
f 19/3/1 14/3/1 13/3/1
f 20/2/1 15/2/1 14/2/1
f 20/3/1 14/3/1 19/3/1
f 21/2/1 15/2/1 20/2/1
f 22/2/1 17/2/1 16/2/1
f 23/3/1 18/3/1 17/3/1
f 23/2/1 17/2/1 22/2/1
f 24/3/1 18/3/1 23/3/1
f 27/3/1 22/3/1 21/3/1
f 28/3/1 22/3/1 27/3/1
f 31/3/1 26/3/1 25/3/1
f 32/2/1 27/2/1 26/2/1
f 32/3/1 26/3/1 31/3/1
f 33/2/1 27/2/1 32/2/1
f 34/2/1 29/2/1 28/2/1
f 35/3/1 30/3/1 29/3/1
f 35/2/1 29/2/1 34/2/1
f 36/3/1 30/3/1 35/3/1
f 39/3/1 38/3/1 37/3/1
f 40/3/1 38/3/1 39/3/1
f 43/3/1 42/3/1 41/3/1
f 44/3/1 42/3/1 43/3/1
f 51/3/1 46/3/1 45/3/1
f 52/2/1 47/2/1 46/2/1
f 52/3/1 46/3/1 51/3/1
f 53/2/1 47/2/1 52/2/1
f 54/2/1 49/2/1 48/2/1
f 55/3/1 50/3/1 49/3/1
f 55/2/1 49/2/1 54/2/1
f 56/3/1 50/3/1 55/3/1
f 57/3/1 54/3/1 53/3/1
f 58/3/1 54/3/1 57/3/1
f 63/3/1 60/3/1 59/3/1
f 64/3/1 60/3/1 63/3/1
f 67/3/1 62/3/1 61/3/1
f 68/2/1 63/2/1 62/2/1
f 68/3/1 62/3/1 67/3/1
f 69/2/1 63/2/1 68/2/1
f 70/2/1 65/2/1 64/2/1
f 71/3/1 66/3/1 65/3/1
f 71/2/1 65/2/1 70/2/1
f 72/3/1 66/3/1 71/3/1
f 77/2/1 74/2/1 73/2/1
f 78/2/1 74/2/1 77/2/1
f 79/2/1 76/2/1 75/2/1
f 80/2/1 76/2/1 79/2/1
f 85/2/1 82/2/1 81/2/1
f 86/2/1 82/2/1 85/2/1
f 87/2/1 84/2/1 83/2/1
f 88/2/1 84/2/1 87/2/1
f 93/2/1 90/2/1 89/2/1
f 94/2/1 90/2/1 93/2/1
f 95/2/1 92/2/1 91/2/1
f 96/2/1 92/2/1 95/2/1
f 101/2/1 98/2/1 97/2/1
f 102/2/1 98/2/1 101/2/1
f 103/2/1 100/2/1 99/2/1
f 104/2/1 100/2/1 103/2/1
f 109/2/1 106/2/1 105/2/1
f 110/2/1 106/2/1 109/2/1
f 111/2/1 108/2/1 107/2/1
f 112/2/1 108/2/1 111/2/1
f 113/2/2 114/2/2 117/2/2
f 117/2/2 114/2/2 118/2/2
f 115/2/2 116/2/2 119/2/2
f 119/2/2 116/2/2 120/2/2
f 121/2/2 122/2/2 125/2/2
f 125/2/2 122/2/2 126/2/2
f 123/2/2 124/2/2 127/2/2
f 127/2/2 124/2/2 128/2/2
f 129/2/2 130/2/2 133/2/2
f 133/2/2 130/2/2 134/2/2
f 131/2/2 132/2/2 135/2/2
f 135/2/2 132/2/2 136/2/2
f 137/2/2 138/2/2 141/2/2
f 141/2/2 138/2/2 142/2/2
f 139/2/2 140/2/2 143/2/2
f 143/2/2 140/2/2 144/2/2
f 145/2/2 146/2/2 149/2/2
f 149/2/2 146/2/2 150/2/2
f 147/2/2 148/2/2 151/2/2
f 151/2/2 148/2/2 152/2/2
f 153/3/2 154/3/2 159/3/2
f 154/2/2 155/2/2 160/2/2
f 159/3/2 154/3/2 160/3/2
f 160/2/2 155/2/2 161/2/2
f 156/2/2 157/2/2 162/2/2
f 157/3/2 158/3/2 163/3/2
f 162/2/2 157/2/2 163/2/2
f 163/3/2 158/3/2 164/3/2
f 161/3/2 162/3/2 165/3/2
f 165/3/2 162/3/2 166/3/2
f 167/3/2 168/3/2 171/3/2
f 171/3/2 168/3/2 172/3/2
f 169/3/2 170/3/2 175/3/2
f 170/2/2 171/2/2 176/2/2
f 175/3/2 170/3/2 176/3/2
f 176/2/2 171/2/2 177/2/2
f 172/2/2 173/2/2 178/2/2
f 173/3/2 174/3/2 179/3/2
f 178/2/2 173/2/2 179/2/2
f 179/3/2 174/3/2 180/3/2
f 181/3/2 182/3/2 183/3/2
f 183/3/2 182/3/2 184/3/2
f 185/3/2 186/3/2 187/3/2
f 187/3/2 186/3/2 188/3/2
f 189/3/2 190/3/2 195/3/2
f 190/2/2 191/2/2 196/2/2
f 195/3/2 190/3/2 196/3/2
f 196/2/2 191/2/2 197/2/2
f 192/2/2 193/2/2 198/2/2
f 193/3/2 194/3/2 199/3/2
f 198/2/2 193/2/2 199/2/2
f 199/3/2 194/3/2 200/3/2
f 197/3/2 198/3/2 203/3/2
f 203/3/2 198/3/2 204/3/2
f 201/3/2 202/3/2 207/3/2
f 202/2/2 203/2/2 208/2/2
f 207/3/2 202/3/2 208/3/2
f 208/2/2 203/2/2 209/2/2
f 204/2/2 205/2/2 210/2/2
f 205/3/2 206/3/2 211/3/2
f 210/2/2 205/2/2 211/2/2
f 211/3/2 206/3/2 212/3/2
f 213/3/2 214/3/2 219/3/2
f 214/2/2 215/2/2 220/2/2
f 219/3/2 214/3/2 220/3/2
f 220/2/2 215/2/2 221/2/2
f 216/2/2 217/2/2 222/2/2
f 217/3/2 218/3/2 223/3/2
f 222/2/2 217/2/2 223/2/2
f 223/3/2 218/3/2 224/3/2
f 228/3/3 226/3/3 225/3/3
f 229/3/3 226/3/3 228/3/3
f 231/3/3 228/3/3 227/3/3
f 232/2/3 229/2/3 228/2/3
f 232/3/3 228/3/3 231/3/3
f 233/2/3 229/2/3 232/2/3
f 234/2/3 229/2/3 233/2/3
f 235/3/3 230/3/3 229/3/3
f 235/2/3 229/2/3 234/2/3
f 236/3/3 230/3/3 235/3/3
f 238/3/3 231/3/3 227/3/3
f 239/2/3 232/2/3 231/2/3
f 239/2/3 233/2/3 232/2/3
f 239/3/3 231/3/3 238/3/3
f 240/2/3 233/2/3 239/2/3
f 241/2/3 233/2/3 240/2/3
f 242/2/3 236/2/3 235/2/3
f 242/2/3 235/2/3 234/2/3
f 243/2/3 236/2/3 242/2/3
f 244/3/3 230/3/3 236/3/3
f 244/2/3 236/2/3 243/2/3
f 245/3/3 230/3/3 244/3/3
f 247/2/3 240/2/3 239/2/3
f 247/2/3 239/2/3 238/2/3
f 248/2/3 240/2/3 247/2/3
f 249/2/3 245/2/3 244/2/3
f 249/2/3 244/2/3 243/2/3
f 250/2/3 245/2/3 249/2/3
f 251/2/3 247/2/3 238/2/3
f 254/2/3 245/2/3 250/2/3
f 255/3/3 238/3/3 237/3/3
f 256/2/3 252/2/3 251/2/3
f 256/3/3 238/3/3 255/3/3
f 256/2/3 251/2/3 238/2/3
f 257/2/3 252/2/3 256/2/3
f 258/2/3 252/2/3 257/2/3
f 261/2/3 254/2/3 253/2/3
f 262/2/3 245/2/3 254/2/3
f 262/2/3 254/2/3 261/2/3
f 263/3/3 246/3/3 245/3/3
f 263/2/3 245/2/3 262/2/3
f 264/3/3 246/3/3 263/3/3
f 265/2/3 259/2/3 258/2/3
f 265/3/3 257/3/3 256/3/3
f 265/2/3 258/2/3 257/2/3
f 266/2/3 259/2/3 265/2/3
f 267/2/3 259/2/3 266/2/3
f 268/2/3 262/2/3 261/2/3
f 268/2/3 261/2/3 260/2/3
f 269/2/3 262/2/3 268/2/3
f 270/3/3 263/3/3 262/3/3
f 270/2/3 262/2/3 269/2/3
f 271/3/3 266/3/3 265/3/3
f 271/3/3 265/3/3 256/3/3
f 272/2/3 267/2/3 266/2/3
f 272/3/3 266/3/3 271/3/3
f 272/2/3 269/2/3 268/2/3
f 272/2/3 268/2/3 267/2/3
f 273/3/3 270/3/3 269/3/3
f 273/2/3 269/2/3 272/2/3
f 274/3/3 263/3/3 270/3/3
f 274/3/3 270/3/3 273/3/3
f 275/3/3 273/3/3 272/3/3
f 276/3/3 273/3/3 275/3/3
f 280/3/3 278/3/3 277/3/3
f 281/3/3 278/3/3 280/3/3
f 284/3/3 280/3/3 279/3/3
f 284/3/3 282/3/3 281/3/3
f 284/3/3 281/3/3 280/3/3
f 285/3/3 282/3/3 284/3/3
f 287/3/3 284/3/3 283/3/3
f 287/3/3 286/3/3 285/3/3
f 287/3/3 285/3/3 284/3/3
f 288/3/3 286/3/3 287/3/3
f 289/3/3 286/3/3 288/3/3
f 290/3/3 287/3/3 283/3/3
f 290/1/3 288/1/3 287/1/3
f 291/2/3 289/2/3 288/2/3
f 291/1/3 288/1/3 290/1/3
f 292/3/3 286/3/3 289/3/3
f 292/2/3 289/2/3 291/2/3
f 293/2/3 291/2/3 290/2/3
f 293/3/3 290/3/3 283/3/3
f 294/1/3 292/1/3 291/1/3
f 294/2/3 291/2/3 293/2/3
f 295/3/3 286/3/3 292/3/3
f 295/1/3 292/1/3 294/1/3
f 296/3/3 294/3/3 293/3/3
f 296/3/3 293/3/3 283/3/3
f 296/3/3 295/3/3 294/3/3
f 297/3/3 295/3/3 296/3/3
f 298/3/3 286/3/3 295/3/3
f 298/3/3 295/3/3 297/3/3
f 299/3/3 286/3/3 298/3/3
f 300/3/3 298/3/3 297/3/3
f 301/3/3 298/3/3 300/3/3
f 302/3/3 298/3/3 301/3/3
f 303/3/3 298/3/3 302/3/3
f 304/3/3 302/3/3 301/3/3
f 305/3/3 302/3/3 304/3/3
f 309/2/3 307/2/3 306/2/3
f 310/2/3 307/2/3 309/2/3
f 312/2/3 309/2/3 308/2/3
f 313/2/3 309/2/3 312/2/3
f 314/2/3 311/2/3 310/2/3
f 315/2/3 311/2/3 314/2/3
f 317/2/3 312/2/3 308/2/3
f 318/2/3 312/2/3 317/2/3
f 319/2/3 311/2/3 315/2/3
f 320/2/3 311/2/3 319/2/3
f 322/2/3 317/2/3 316/2/3
f 323/2/3 317/2/3 322/2/3
f 326/2/3 321/2/3 320/2/3
f 327/2/3 321/2/3 326/2/3
f 328/2/3 324/2/3 323/2/3
f 331/2/3 326/2/3 325/2/3
f 332/2/3 329/2/3 328/2/3
f 332/2/3 328/2/3 323/2/3
f 333/2/3 329/2/3 332/2/3
f 334/2/3 331/2/3 330/2/3
f 335/2/3 326/2/3 331/2/3
f 335/2/3 331/2/3 334/2/3
f 336/2/3 334/2/3 333/2/3
f 337/2/3 334/2/3 336/2/3
f 338/2/4 339/2/4 341/2/4
f 341/2/4 339/2/4 342/2/4
f 340/2/4 341/2/4 344/2/4
f 344/2/4 341/2/4 345/2/4
f 342/2/4 343/2/4 346/2/4
f 346/2/4 343/2/4 347/2/4
f 340/2/4 344/2/4 349/2/4
f 349/2/4 344/2/4 350/2/4
f 347/2/4 343/2/4 351/2/4
f 351/2/4 343/2/4 352/2/4
f 348/2/4 349/2/4 354/2/4
f 354/2/4 349/2/4 355/2/4
f 352/2/4 353/2/4 358/2/4
f 358/2/4 353/2/4 359/2/4
f 355/2/4 356/2/4 360/2/4
f 357/2/4 358/2/4 363/2/4
f 360/2/4 361/2/4 364/2/4
f 355/2/4 360/2/4 364/2/4
f 364/2/4 361/2/4 365/2/4
f 362/2/4 363/2/4 366/2/4
f 363/2/4 358/2/4 367/2/4
f 366/2/4 363/2/4 367/2/4
f 365/2/4 366/2/4 368/2/4
f 368/2/4 366/2/4 369/2/4
f 370/3/4 371/3/4 373/3/4
f 373/3/4 371/3/4 374/3/4
f 372/3/4 373/3/4 377/3/4
f 374/3/4 375/3/4 377/3/4
f 373/3/4 374/3/4 377/3/4
f 377/3/4 375/3/4 378/3/4
f 376/3/4 377/3/4 380/3/4
f 378/3/4 379/3/4 380/3/4
f 377/3/4 378/3/4 380/3/4
f 380/3/4 379/3/4 381/3/4
f 381/3/4 379/3/4 382/3/4
f 382/3/4 379/3/4 383/3/4
f 381/3/4 382/3/4 384/3/4
f 384/3/4 382/3/4 385/3/4
f 385/3/4 382/3/4 386/3/4
f 386/3/4 382/3/4 387/3/4
f 385/3/4 386/3/4 388/3/4
f 388/3/4 386/3/4 389/3/4
f 390/3/4 391/3/4 393/3/4
f 393/3/4 391/3/4 394/3/4
f 392/3/4 393/3/4 396/3/4
f 393/2/4 394/2/4 397/2/4
f 396/3/4 393/3/4 397/3/4
f 397/2/4 394/2/4 398/2/4
f 398/2/4 394/2/4 399/2/4
f 394/3/4 395/3/4 400/3/4
f 399/2/4 394/2/4 400/2/4
f 400/3/4 395/3/4 401/3/4
f 392/3/4 396/3/4 403/3/4
f 396/2/4 397/2/4 404/2/4
f 397/2/4 398/2/4 404/2/4
f 403/3/4 396/3/4 404/3/4
f 404/2/4 398/2/4 405/2/4
f 405/2/4 398/2/4 406/2/4
f 400/2/4 401/2/4 407/2/4
f 399/2/4 400/2/4 407/2/4
f 407/2/4 401/2/4 408/2/4
f 401/3/4 395/3/4 409/3/4
f 408/2/4 401/2/4 409/2/4
f 409/3/4 395/3/4 410/3/4
f 404/2/4 405/2/4 412/2/4
f 403/2/4 404/2/4 412/2/4
f 412/2/4 405/2/4 413/2/4
f 409/2/4 410/2/4 414/2/4
f 408/2/4 409/2/4 414/2/4
f 414/2/4 410/2/4 415/2/4
f 403/2/4 412/2/4 416/2/4
f 415/2/4 410/2/4 419/2/4
f 402/3/4 403/3/4 420/3/4
f 416/2/4 417/2/4 421/2/4
f 420/3/4 403/3/4 421/3/4
f 403/2/4 416/2/4 421/2/4
f 421/2/4 417/2/4 422/2/4
f 422/2/4 417/2/4 423/2/4
f 418/2/4 419/2/4 426/2/4
f 419/2/4 410/2/4 427/2/4
f 426/2/4 419/2/4 427/2/4
f 410/3/4 411/3/4 428/3/4
f 427/2/4 410/2/4 428/2/4
f 428/3/4 411/3/4 429/3/4
f 423/2/4 424/2/4 430/2/4
f 421/3/4 422/3/4 430/3/4
f 422/2/4 423/2/4 430/2/4
f 430/2/4 424/2/4 431/2/4
f 431/2/4 424/2/4 432/2/4
f 426/2/4 427/2/4 433/2/4
f 425/2/4 426/2/4 433/2/4
f 433/2/4 427/2/4 434/2/4
f 427/3/4 428/3/4 435/3/4
f 434/2/4 427/2/4 435/2/4
f 430/3/4 431/3/4 436/3/4
f 421/3/4 430/3/4 436/3/4
f 431/2/4 432/2/4 437/2/4
f 436/3/4 431/3/4 437/3/4
f 433/2/4 434/2/4 437/2/4
f 432/2/4 433/2/4 437/2/4
f 434/3/4 435/3/4 438/3/4
f 437/2/4 434/2/4 438/2/4
f 435/3/4 428/3/4 439/3/4
f 438/3/4 435/3/4 439/3/4
f 437/3/4 438/3/4 440/3/4
f 440/3/4 438/3/4 441/3/4
f 444/3/5 443/3/5 442/3/5
f 445/3/5 443/3/5 444/3/5
f 446/2/5 445/2/5 444/2/5
f 447/2/5 445/2/5 446/2/5
f 450/2/5 449/2/5 448/2/5
f 451/2/5 449/2/5 450/2/5
f 452/3/5 451/3/5 450/3/5
f 453/3/5 451/3/5 452/3/5
f 458/3/5 455/3/5 454/3/5
f 459/3/5 455/3/5 458/3/5
f 460/3/5 457/3/5 456/3/5
f 461/3/5 457/3/5 460/3/5
f 462/2/5 459/2/5 458/2/5
f 463/2/5 459/2/5 462/2/5
f 464/2/5 461/2/5 460/2/5
f 465/2/5 461/2/5 464/2/5
f 467/3/5 464/3/5 463/3/5
f 468/3/5 464/3/5 467/3/5
f 470/2/5 467/2/5 466/2/5
f 471/2/5 467/2/5 470/2/5
f 472/2/5 469/2/5 468/2/5
f 473/2/5 469/2/5 472/2/5
f 474/3/5 471/3/5 470/3/5
f 475/3/5 471/3/5 474/3/5
f 476/3/5 473/3/5 472/3/5
f 477/3/5 473/3/5 476/3/5
f 482/3/5 479/3/5 478/3/5
f 483/3/5 479/3/5 482/3/5
f 484/3/5 481/3/5 480/3/5
f 485/3/5 481/3/5 484/3/5
f 490/3/5 487/3/5 486/3/5
f 491/3/5 487/3/5 490/3/5
f 492/3/5 489/3/5 488/3/5
f 493/3/5 489/3/5 492/3/5
f 494/2/5 491/2/5 490/2/5
f 495/2/5 491/2/5 494/2/5
f 498/2/5 493/2/5 492/2/5
f 499/2/5 493/2/5 498/2/5
f 501/3/5 496/3/5 495/3/5
f 502/3/5 496/3/5 501/3/5
f 503/3/5 498/3/5 497/3/5
f 504/3/5 498/3/5 503/3/5
f 506/2/5 501/2/5 500/2/5
f 507/2/5 501/2/5 506/2/5
f 508/2/5 505/2/5 504/2/5
f 509/2/5 505/2/5 508/2/5
f 510/3/5 507/3/5 506/3/5
f 511/3/5 507/3/5 510/3/5
f 512/3/5 509/3/5 508/3/5
f 513/3/5 509/3/5 512/3/5
f 518/2/5 515/2/5 514/2/5
f 519/2/5 515/2/5 518/2/5
f 520/2/5 517/2/5 516/2/5
f 521/2/5 517/2/5 520/2/5
f 526/2/5 523/2/5 522/2/5
f 527/2/5 523/2/5 526/2/5
f 528/2/5 525/2/5 524/2/5
f 529/2/5 525/2/5 528/2/5
f 534/2/5 531/2/5 530/2/5
f 535/2/5 531/2/5 534/2/5
f 536/2/5 533/2/5 532/2/5
f 537/2/5 533/2/5 536/2/5
f 542/2/5 539/2/5 538/2/5
f 543/2/5 539/2/5 542/2/5
f 544/2/5 541/2/5 540/2/5
f 545/2/5 541/2/5 544/2/5
f 548/2/5 547/2/5 546/2/5
f 549/2/5 547/2/5 548/2/5
f 552/2/5 551/2/5 550/2/5
f 553/2/5 551/2/5 552/2/5
f 554/2/6 555/2/6 556/2/6
f 556/2/6 555/2/6 557/2/6
f 558/2/6 559/2/6 560/2/6
f 560/2/6 559/2/6 561/2/6
f 562/2/6 563/2/6 566/2/6
f 566/2/6 563/2/6 567/2/6
f 564/2/6 565/2/6 568/2/6
f 568/2/6 565/2/6 569/2/6
f 570/2/6 571/2/6 574/2/6
f 574/2/6 571/2/6 575/2/6
f 572/2/6 573/2/6 576/2/6
f 576/2/6 573/2/6 577/2/6
f 578/2/6 579/2/6 582/2/6
f 582/2/6 579/2/6 583/2/6
f 580/2/6 581/2/6 584/2/6
f 584/2/6 581/2/6 585/2/6
f 586/2/6 587/2/6 590/2/6
f 590/2/6 587/2/6 591/2/6
f 588/2/6 589/2/6 592/2/6
f 592/2/6 589/2/6 593/2/6
f 594/3/6 595/3/6 598/3/6
f 598/3/6 595/3/6 599/3/6
f 596/3/6 597/3/6 600/3/6
f 600/3/6 597/3/6 601/3/6
f 598/2/6 599/2/6 602/2/6
f 602/2/6 599/2/6 603/2/6
f 600/2/6 601/2/6 606/2/6
f 606/2/6 601/2/6 607/2/6
f 603/3/6 604/3/6 609/3/6
f 609/3/6 604/3/6 610/3/6
f 605/3/6 606/3/6 611/3/6
f 611/3/6 606/3/6 612/3/6
f 608/2/6 609/2/6 614/2/6
f 614/2/6 609/2/6 615/2/6
f 612/2/6 613/2/6 616/2/6
f 616/2/6 613/2/6 617/2/6
f 614/3/6 615/3/6 618/3/6
f 618/3/6 615/3/6 619/3/6
f 616/3/6 617/3/6 620/3/6
f 620/3/6 617/3/6 621/3/6
f 622/3/6 623/3/6 626/3/6
f 626/3/6 623/3/6 627/3/6
f 624/3/6 625/3/6 628/3/6
f 628/3/6 625/3/6 629/3/6
f 630/3/6 631/3/6 634/3/6
f 634/3/6 631/3/6 635/3/6
f 632/3/6 633/3/6 636/3/6
f 636/3/6 633/3/6 637/3/6
f 634/2/6 635/2/6 638/2/6
f 638/2/6 635/2/6 639/2/6
f 636/2/6 637/2/6 640/2/6
f 640/2/6 637/2/6 641/2/6
f 639/3/6 640/3/6 643/3/6
f 643/3/6 640/3/6 644/3/6
f 642/2/6 643/2/6 646/2/6
f 646/2/6 643/2/6 647/2/6
f 644/2/6 645/2/6 648/2/6
f 648/2/6 645/2/6 649/2/6
f 646/3/6 647/3/6 650/3/6
f 650/3/6 647/3/6 651/3/6
f 648/3/6 649/3/6 652/3/6
f 652/3/6 649/3/6 653/3/6
f 654/3/6 655/3/6 656/3/6
f 656/3/6 655/3/6 657/3/6
f 656/2/6 657/2/6 658/2/6
f 658/2/6 657/2/6 659/2/6
f 660/2/6 661/2/6 662/2/6
f 662/2/6 661/2/6 663/2/6
f 662/3/6 663/3/6 664/3/6
f 664/3/6 663/3/6 665/3/6
