# Created by Kenney (www.kenney.nl)

mtllib mug.mtl

v -2 3 -0.5
v -2 2.5 -0.5
v -2 3 0.5
v -2 2.5 0.5
v -3 3 -0.5
v -3 3 0.5
v -3 2.5 0.5
v -3 2.5 -0.5
v -2 1 0.5
v -2 1 -0.5
v -3 1 0.5
v -3 1 -0.5
v -2 1.5 -0.5
v -2 1.5 0.5
v -3 1.5 -0.5
v -3 1.5 0.5
v -3 2 0.5
v -3 2 -0.5
v -3.5 2 0.5
v -3.5 2 -0.5
v -3.5 3 -0.5
v -3.5 3 0.5
v -3.5 1 0.5
v -3.5 1 -0.5
v 1 0 1.5
v 1 0 -1.5
v -2 0 1.5
v -2 0 -1.5
v -2 4 -1.5
v -2 4 1.5
v 1 4 -1.5
v 1 4 1.5

vn 1 0 0
vn 0 1 0
vn 0 -1 0
vn 0 0 -1
vn -1 0 0
vn 0 0 1

vt 0.0625 0.0625

usemtl palette(Clone)

f 3/1/1 2/1/1 1/1/1
f 2/1/1 3/1/1 4/1/1
f 5/1/2 3/1/2 1/1/2
f 3/1/2 5/1/2 6/1/2
f 7/1/3 2/1/3 4/1/3
f 2/1/3 7/1/3 8/1/3
f 5/1/4 2/1/4 8/1/4
f 2/1/4 5/1/4 1/1/4
f 7/1/5 5/1/5 8/1/5
f 5/1/5 7/1/5 6/1/5
f 4/1/6 6/1/6 7/1/6
f 6/1/6 4/1/6 3/1/6
f 11/1/3 10/1/3 9/1/3
f 10/1/3 11/1/3 12/1/3
f 15/1/2 14/1/2 13/1/2
f 14/1/2 15/1/2 16/1/2
f 15/1/4 10/1/4 12/1/4
f 10/1/4 15/1/4 13/1/4
f 11/1/5 15/1/5 12/1/5
f 15/1/5 11/1/5 16/1/5
f 9/1/6 16/1/6 11/1/6
f 16/1/6 9/1/6 14/1/6
f 14/1/1 10/1/1 13/1/1
f 10/1/1 14/1/1 9/1/1
f 19/1/3 18/1/3 17/1/3
f 18/1/3 19/1/3 20/1/3
f 21/1/4 18/1/4 20/1/4
f 18/1/4 21/1/4 5/1/4
f 19/1/5 21/1/5 20/1/5
f 21/1/5 19/1/5 22/1/5
f 21/1/2 6/1/2 5/1/2
f 6/1/2 21/1/2 22/1/2
f 17/1/6 22/1/6 19/1/6
f 22/1/6 17/1/6 6/1/6
f 6/1/1 18/1/1 5/1/1
f 18/1/1 6/1/1 17/1/1
f 23/1/3 12/1/3 11/1/3
f 12/1/3 23/1/3 24/1/3
f 20/1/4 12/1/4 24/1/4
f 12/1/4 20/1/4 18/1/4
f 23/1/5 20/1/5 24/1/5
f 20/1/5 23/1/5 19/1/5
f 20/1/2 17/1/2 18/1/2
f 17/1/2 20/1/2 19/1/2
f 11/1/6 19/1/6 23/1/6
f 19/1/6 11/1/6 17/1/6
f 17/1/1 12/1/1 18/1/1
f 12/1/1 17/1/1 11/1/1
f 27/1/3 26/1/3 25/1/3
f 26/1/3 27/1/3 28/1/3
f 27/1/5 29/1/5 28/1/5
f 29/1/5 27/1/5 30/1/5
f 29/1/4 26/1/4 28/1/4
f 26/1/4 29/1/4 31/1/4
f 32/1/6 27/1/6 25/1/6
f 27/1/6 32/1/6 30/1/6
f 32/1/1 26/1/1 31/1/1
f 26/1/1 32/1/1 25/1/1
f 29/1/2 32/1/2 31/1/2
f 32/1/2 29/1/2 30/1/2

