# Created by Kenney (www.kenney.nl)

mtllib green-leaves-with-snow-block.mtl

v 4 4 2
v 4 4 -2
v 3 4 2
v 3 4 -2
v 3 5 -2
v 3 5 2
v 4 5 -2
v 4 5 2
v 4 -1 4
v 4 -1 -4
v -4 -1 4
v -4 -1 -4
v -4 3 -4
v -4 3 4
v 4 3 -4
v 4 3 4
v 3 4 3
v 3 4 -3
v 2 4 3
v 2 4 -3
v 2 5 -3
v 2 5 3
v 3 5 -3
v 3 5 3
v 3 -2 4
v 3 -2 -4
v -3 -2 4
v -3 -2 -4
v -3 -1 -4
v -3 -1 4
v 3 -1 -4
v 3 -1 4
v 2 3 4
v 2 3 -4
v -2 3 4
v -2 3 -4
v -2 5 -4
v -2 5 4
v 2 5 -4
v 2 5 4
v 2 -3 4
v 2 -3 -4
v -2 -3 4
v -2 -3 -4
v -2 -2 -4
v -2 -2 4
v 2 -2 -4
v 2 -2 4
v -2 4 3
v -2 4 -3
v -3 4 3
v -3 4 -3
v -3 5 -3
v -3 5 3
v -2 5 -3
v -2 5 3
v -2 -3 3
v -2 -3 -3
v -3 -3 3
v -3 -3 -3
v -3 -2 -3
v -3 -2 3
v -2 -2 -3
v -2 -2 3
v -3 4 2
v -3 4 -2
v -4 4 2
v -4 4 -2
v -4 5 -2
v -4 5 2
v -3 5 -2
v -3 5 2
v -4 -2 3
v -4 -2 -3
v -4 -1 -3
v -4 -1 3
v -3 -1 -3
v -3 -1 3
v 4 3 3
v 4 3 -3
v 3 3 3
v 3 3 -3
v 4 4 -3
v 4 4 3
v 4 -2 3
v 4 -2 -3
v 3 -2 3
v 3 -2 -3
v 3 -1 -3
v 3 -1 3
v 4 -1 -3
v 4 -1 3
v 3 3 4
v 3 3 -4
v 2 4 -4
v 2 4 4
v 3 4 -4
v 3 4 4
v 3 -3 3
v 3 -3 -3
v 2 -3 3
v 2 -3 -3
v 2 -2 -3
v 2 -2 3
v -3 3 4
v -3 3 -4
v -3 4 -4
v -3 4 4
v -2 4 -4
v -2 4 4
v -3 3 3
v -3 3 -3
v -4 3 3
v -4 3 -3
v -4 4 -3
v -4 4 3
v -3 -3 2
v -3 -3 -2
v -4 -3 2
v -4 -3 -2
v -4 -2 -2
v -4 -2 2
v -3 -2 -2
v -3 -2 2
v 4 -3 2
v 4 -3 -2
v 3 -3 2
v 3 -3 -2
v 3 -2 -2
v 3 -2 2
v 4 -2 -2
v 4 -2 2

vn 0 -1 0
vn -1 0 0
vn 0 0 -1
vn 0 0 1
vn 1 0 0
vn 0 1 0

vt 0.0625 0.0625
vt 0.1875 0.0625

usemtl palette(Clone)

f 3/1/1 2/1/1 1/1/1
f 2/1/1 3/1/1 4/1/1
f 3/1/2 5/1/2 4/1/2
f 5/1/2 3/1/2 6/1/2
f 5/1/3 2/1/3 4/1/3
f 2/1/3 5/1/3 7/1/3
f 8/1/4 3/1/4 1/1/4
f 3/1/4 8/1/4 6/1/4
f 8/1/5 2/1/5 7/1/5
f 2/1/5 8/1/5 1/1/5
f 5/1/6 8/1/6 7/1/6
f 8/1/6 5/1/6 6/1/6
f 11/2/1 10/2/1 9/2/1
f 10/2/1 11/2/1 12/2/1
f 11/2/2 13/2/2 12/2/2
f 13/2/2 11/2/2 14/2/2
f 13/2/3 10/2/3 12/2/3
f 10/2/3 13/2/3 15/2/3
f 16/2/4 11/2/4 9/2/4
f 11/2/4 16/2/4 14/2/4
f 16/2/5 10/2/5 15/2/5
f 10/2/5 16/2/5 9/2/5
f 13/2/6 16/2/6 15/2/6
f 16/2/6 13/2/6 14/2/6
f 19/1/1 18/1/1 17/1/1
f 18/1/1 19/1/1 20/1/1
f 19/1/2 21/1/2 20/1/2
f 21/1/2 19/1/2 22/1/2
f 21/1/3 18/1/3 20/1/3
f 18/1/3 21/1/3 23/1/3
f 24/1/4 19/1/4 17/1/4
f 19/1/4 24/1/4 22/1/4
f 24/1/5 18/1/5 23/1/5
f 18/1/5 24/1/5 17/1/5
f 21/1/6 24/1/6 23/1/6
f 24/1/6 21/1/6 22/1/6
f 27/2/1 26/2/1 25/2/1
f 26/2/1 27/2/1 28/2/1
f 27/2/2 29/2/2 28/2/2
f 29/2/2 27/2/2 30/2/2
f 29/2/3 26/2/3 28/2/3
f 26/2/3 29/2/3 31/2/3
f 32/2/4 27/2/4 25/2/4
f 27/2/4 32/2/4 30/2/4
f 32/2/5 26/2/5 31/2/5
f 26/2/5 32/2/5 25/2/5
f 29/2/6 32/2/6 31/2/6
f 32/2/6 29/2/6 30/2/6
f 35/1/1 34/1/1 33/1/1
f 34/1/1 35/1/1 36/1/1
f 35/1/2 37/1/2 36/1/2
f 37/1/2 35/1/2 38/1/2
f 37/1/3 34/1/3 36/1/3
f 34/1/3 37/1/3 39/1/3
f 40/1/4 35/1/4 33/1/4
f 35/1/4 40/1/4 38/1/4
f 40/1/5 34/1/5 39/1/5
f 34/1/5 40/1/5 33/1/5
f 37/1/6 40/1/6 39/1/6
f 40/1/6 37/1/6 38/1/6
f 43/2/1 42/2/1 41/2/1
f 42/2/1 43/2/1 44/2/1
f 43/2/2 45/2/2 44/2/2
f 45/2/2 43/2/2 46/2/2
f 45/2/3 42/2/3 44/2/3
f 42/2/3 45/2/3 47/2/3
f 48/2/4 43/2/4 41/2/4
f 43/2/4 48/2/4 46/2/4
f 48/2/5 42/2/5 47/2/5
f 42/2/5 48/2/5 41/2/5
f 45/2/6 48/2/6 47/2/6
f 48/2/6 45/2/6 46/2/6
f 51/1/1 50/1/1 49/1/1
f 50/1/1 51/1/1 52/1/1
f 51/1/2 53/1/2 52/1/2
f 53/1/2 51/1/2 54/1/2
f 53/1/3 50/1/3 52/1/3
f 50/1/3 53/1/3 55/1/3
f 56/1/4 51/1/4 49/1/4
f 51/1/4 56/1/4 54/1/4
f 56/1/5 50/1/5 55/1/5
f 50/1/5 56/1/5 49/1/5
f 53/1/6 56/1/6 55/1/6
f 56/1/6 53/1/6 54/1/6
f 59/2/1 58/2/1 57/2/1
f 58/2/1 59/2/1 60/2/1
f 59/2/2 61/2/2 60/2/2
f 61/2/2 59/2/2 62/2/2
f 61/2/3 58/2/3 60/2/3
f 58/2/3 61/2/3 63/2/3
f 64/2/4 59/2/4 57/2/4
f 59/2/4 64/2/4 62/2/4
f 64/2/5 58/2/5 63/2/5
f 58/2/5 64/2/5 57/2/5
f 61/2/6 64/2/6 63/2/6
f 64/2/6 61/2/6 62/2/6
f 67/1/1 66/1/1 65/1/1
f 66/1/1 67/1/1 68/1/1
f 67/1/2 69/1/2 68/1/2
f 69/1/2 67/1/2 70/1/2
f 69/1/3 66/1/3 68/1/3
f 66/1/3 69/1/3 71/1/3
f 72/1/4 67/1/4 65/1/4
f 67/1/4 72/1/4 70/1/4
f 72/1/5 66/1/5 71/1/5
f 66/1/5 72/1/5 65/1/5
f 69/1/6 72/1/6 71/1/6
f 72/1/6 69/1/6 70/1/6
f 73/2/1 61/2/1 62/2/1
f 61/2/1 73/2/1 74/2/1
f 73/2/2 75/2/2 74/2/2
f 75/2/2 73/2/2 76/2/2
f 75/2/3 61/2/3 74/2/3
f 61/2/3 75/2/3 77/2/3
f 78/2/4 73/2/4 62/2/4
f 73/2/4 78/2/4 76/2/4
f 78/2/5 61/2/5 77/2/5
f 61/2/5 78/2/5 62/2/5
f 75/2/6 78/2/6 77/2/6
f 78/2/6 75/2/6 76/2/6
f 81/1/1 80/1/1 79/1/1
f 80/1/1 81/1/1 82/1/1
f 81/1/2 18/1/2 82/1/2
f 18/1/2 81/1/2 17/1/2
f 18/1/3 80/1/3 82/1/3
f 80/1/3 18/1/3 83/1/3
f 84/1/4 81/1/4 79/1/4
f 81/1/4 84/1/4 17/1/4
f 84/1/5 80/1/5 83/1/5
f 80/1/5 84/1/5 79/1/5
f 18/1/6 84/1/6 83/1/6
f 84/1/6 18/1/6 17/1/6
f 87/2/1 86/2/1 85/2/1
f 86/2/1 87/2/1 88/2/1
f 87/2/2 89/2/2 88/2/2
f 89/2/2 87/2/2 90/2/2
f 89/2/3 86/2/3 88/2/3
f 86/2/3 89/2/3 91/2/3
f 92/2/4 87/2/4 85/2/4
f 87/2/4 92/2/4 90/2/4
f 92/2/5 86/2/5 91/2/5
f 86/2/5 92/2/5 85/2/5
f 89/2/6 92/2/6 91/2/6
f 92/2/6 89/2/6 90/2/6
f 33/1/1 94/1/1 93/1/1
f 94/1/1 33/1/1 34/1/1
f 33/1/2 95/1/2 34/1/2
f 95/1/2 33/1/2 96/1/2
f 95/1/3 94/1/3 34/1/3
f 94/1/3 95/1/3 97/1/3
f 98/1/4 33/1/4 93/1/4
f 33/1/4 98/1/4 96/1/4
f 98/1/5 94/1/5 97/1/5
f 94/1/5 98/1/5 93/1/5
f 95/1/6 98/1/6 97/1/6
f 98/1/6 95/1/6 96/1/6
f 101/2/1 100/2/1 99/2/1
f 100/2/1 101/2/1 102/2/1
f 101/2/2 103/2/2 102/2/2
f 103/2/2 101/2/2 104/2/2
f 103/2/3 100/2/3 102/2/3
f 100/2/3 103/2/3 88/2/3
f 87/2/4 101/2/4 99/2/4
f 101/2/4 87/2/4 104/2/4
f 87/2/5 100/2/5 88/2/5
f 100/2/5 87/2/5 99/2/5
f 103/2/6 87/2/6 88/2/6
f 87/2/6 103/2/6 104/2/6
f 105/1/1 36/1/1 35/1/1
f 36/1/1 105/1/1 106/1/1
f 105/1/2 107/1/2 106/1/2
f 107/1/2 105/1/2 108/1/2
f 107/1/3 36/1/3 106/1/3
f 36/1/3 107/1/3 109/1/3
f 110/1/4 105/1/4 35/1/4
f 105/1/4 110/1/4 108/1/4
f 110/1/5 36/1/5 109/1/5
f 36/1/5 110/1/5 35/1/5
f 107/1/6 110/1/6 109/1/6
f 110/1/6 107/1/6 108/1/6
f 113/1/1 112/1/1 111/1/1
f 112/1/1 113/1/1 114/1/1
f 113/1/2 115/1/2 114/1/2
f 115/1/2 113/1/2 116/1/2
f 115/1/3 112/1/3 114/1/3
f 112/1/3 115/1/3 52/1/3
f 51/1/4 113/1/4 111/1/4
f 113/1/4 51/1/4 116/1/4
f 51/1/5 112/1/5 52/1/5
f 112/1/5 51/1/5 111/1/5
f 115/1/6 51/1/6 52/1/6
f 51/1/6 115/1/6 116/1/6
f 119/2/1 118/2/1 117/2/1
f 118/2/1 119/2/1 120/2/1
f 119/2/2 121/2/2 120/2/2
f 121/2/2 119/2/2 122/2/2
f 121/2/3 118/2/3 120/2/3
f 118/2/3 121/2/3 123/2/3
f 124/2/4 119/2/4 117/2/4
f 119/2/4 124/2/4 122/2/4
f 124/2/5 118/2/5 123/2/5
f 118/2/5 124/2/5 117/2/5
f 121/2/6 124/2/6 123/2/6
f 124/2/6 121/2/6 122/2/6
f 127/2/1 126/2/1 125/2/1
f 126/2/1 127/2/1 128/2/1
f 127/2/2 129/2/2 128/2/2
f 129/2/2 127/2/2 130/2/2
f 129/2/3 126/2/3 128/2/3
f 126/2/3 129/2/3 131/2/3
f 132/2/4 127/2/4 125/2/4
f 127/2/4 132/2/4 130/2/4
f 132/2/5 126/2/5 131/2/5
f 126/2/5 132/2/5 125/2/5
f 129/2/6 132/2/6 131/2/6
f 132/2/6 129/2/6 130/2/6

