# Created by Kenney (www.kenney.nl)

mtllib wood-plank.mtl

v 1 5 0.5
v 1 5 -0.5
v 5.960464E-08 5 0.5
v 5.960464E-08 5 -0.5
v 1 5.5 -0.5
v 1 5.5 0.5
v 0 5.5 -0.5
v 0 5.5 0.5
v -0.9999999 5 0.5
v -0.9999999 5 -0.5
v -1 5.5 -0.5
v -1 5.5 0.5
v 0 5 -0.5
v 0 5 0.5
v 1 -2 0.5
v 1 -2 -0.5
v -2 -2 0.5
v -2 -2 -0.5
v -2 5 -0.5
v -2 5 0.5

vn 0 -1 0
vn 0 1 0
vn 0 0 -1
vn -1 0 0
vn 0 0 1
vn 1 0 0

vt 0.0625 0.0625

usemtl palette(Clone)

f 3/1/1 2/1/1 1/1/1
f 2/1/1 3/1/1 4/1/1
f 7/1/2 6/1/2 5/1/2
f 6/1/2 7/1/2 8/1/2
f 7/1/3 2/1/3 4/1/3
f 2/1/3 7/1/3 5/1/3
f 3/1/4 7/1/4 4/1/4
f 7/1/4 3/1/4 8/1/4
f 1/1/5 8/1/5 3/1/5
f 8/1/5 1/1/5 6/1/5
f 6/1/6 2/1/6 5/1/6
f 2/1/6 6/1/6 1/1/6
f 9/1/1 4/1/1 3/1/1
f 4/1/1 9/1/1 10/1/1
f 11/1/2 8/1/2 7/1/2
f 8/1/2 11/1/2 12/1/2
f 11/1/3 4/1/3 10/1/3
f 4/1/3 11/1/3 7/1/3
f 9/1/4 11/1/4 10/1/4
f 11/1/4 9/1/4 12/1/4
f 3/1/5 12/1/5 9/1/5
f 12/1/5 3/1/5 8/1/5
f 8/1/6 13/1/6 7/1/6
f 13/1/6 8/1/6 14/1/6
f 17/1/1 16/1/1 15/1/1
f 16/1/1 17/1/1 18/1/1
f 17/1/4 19/1/4 18/1/4
f 19/1/4 17/1/4 20/1/4
f 19/1/3 16/1/3 18/1/3
f 16/1/3 19/1/3 2/1/3
f 1/1/5 17/1/5 15/1/5
f 17/1/5 1/1/5 20/1/5
f 1/1/6 16/1/6 2/1/6
f 16/1/6 1/1/6 15/1/6
f 19/1/2 1/1/2 2/1/2
f 1/1/2 19/1/2 20/1/2

