# Created by Kenney (www.kenney.nl)

mtllib pine.mtl

v 1 1 -1.5
v 1.5 1 -1.5
v 1 2 -1.5
v 1.5 2 -1.5
v 1.5 2 1.5
v 1 2 1.5
v 1.5 1 1.5
v 1 1 1.5
v 0 2 -0.5
v 0.5 2 -0.5
v 0 3 -0.5
v 0.5 3 -0.5
v 0.5 3 0.5
v 0 3 0.5
v 0.5 2 0.5
v 0 2 0.5
v 0 -1 -0.5
v 0.5 -1 -0.5
v 0 0 -0.5
v 0.5 0 -0.5
v 0.5 0 0.5
v 0 0 0.5
v 0.5 -1 0.5
v 0 -1 0.5
v -0.5 2 0.5
v -0.5 2 -0.5
v -0.5 3 -0.5
v -0.5 3 0.5
v -0.5 -1 0.5
v -0.5 -1 -0.5
v -0.5 0 -0.5
v -0.5 0 0.5
v -1 1 1.5
v -1 1 -1.5
v -1.5 1 1.5
v -1.5 1 -1.5
v -1.5 2 -1.5
v -1 2 -1.5
v -1.5 2 1.5
v -1 2 1.5
v 1 0 1
v 1 0 -1
v -1 0 1
v -1 0 -1
v -1 1 -1
v -1 1 1
v 1 1 -1
v 1 1 1

vn 0 0 -1
vn 0 1 0
vn 0 -1 0
vn -1 0 0
vn 0 0 1
vn 1 0 0

vt 0.0625 0.0625
vt 0.1875 0.0625

usemtl palette(Clone)

f 3/1/1 2/1/1 1/1/1
f 2/1/1 3/1/1 4/1/1
f 3/1/2 5/1/2 4/1/2
f 5/1/2 3/1/2 6/1/2
f 8/1/3 2/1/3 7/1/3
f 2/1/3 8/1/3 1/1/3
f 8/1/4 3/1/4 1/1/4
f 3/1/4 8/1/4 6/1/4
f 7/1/5 6/1/5 8/1/5
f 6/1/5 7/1/5 5/1/5
f 5/1/6 2/1/6 4/1/6
f 2/1/6 5/1/6 7/1/6
f 11/2/1 10/2/1 9/2/1
f 10/2/1 11/2/1 12/2/1
f 11/2/2 13/2/2 12/2/2
f 13/2/2 11/2/2 14/2/2
f 16/2/3 10/2/3 15/2/3
f 10/2/3 16/2/3 9/2/3
f 16/2/4 11/2/4 9/2/4
f 11/2/4 16/2/4 14/2/4
f 15/2/5 14/2/5 16/2/5
f 14/2/5 15/2/5 13/2/5
f 13/2/6 10/2/6 12/2/6
f 10/2/6 13/2/6 15/2/6
f 19/1/1 18/1/1 17/1/1
f 18/1/1 19/1/1 20/1/1
f 19/1/2 21/1/2 20/1/2
f 21/1/2 19/1/2 22/1/2
f 24/1/3 18/1/3 23/1/3
f 18/1/3 24/1/3 17/1/3
f 24/1/4 19/1/4 17/1/4
f 19/1/4 24/1/4 22/1/4
f 23/1/5 22/1/5 24/1/5
f 22/1/5 23/1/5 21/1/5
f 21/1/6 18/1/6 20/1/6
f 18/1/6 21/1/6 23/1/6
f 25/2/3 9/2/3 16/2/3
f 9/2/3 25/2/3 26/2/3
f 27/2/1 9/2/1 26/2/1
f 9/2/1 27/2/1 11/2/1
f 25/2/4 27/2/4 26/2/4
f 27/2/4 25/2/4 28/2/4
f 27/2/2 14/2/2 11/2/2
f 14/2/2 27/2/2 28/2/2
f 16/2/5 28/2/5 25/2/5
f 28/2/5 16/2/5 14/2/5
f 14/2/6 9/2/6 11/2/6
f 9/2/6 14/2/6 16/2/6
f 29/1/3 17/1/3 24/1/3
f 17/1/3 29/1/3 30/1/3
f 31/1/1 17/1/1 30/1/1
f 17/1/1 31/1/1 19/1/1
f 29/1/4 31/1/4 30/1/4
f 31/1/4 29/1/4 32/1/4
f 31/1/2 22/1/2 19/1/2
f 22/1/2 31/1/2 32/1/2
f 24/1/5 32/1/5 29/1/5
f 32/1/5 24/1/5 22/1/5
f 22/1/6 17/1/6 19/1/6
f 17/1/6 22/1/6 24/1/6
f 35/1/3 34/1/3 33/1/3
f 34/1/3 35/1/3 36/1/3
f 37/1/1 34/1/1 36/1/1
f 34/1/1 37/1/1 38/1/1
f 35/1/4 37/1/4 36/1/4
f 37/1/4 35/1/4 39/1/4
f 37/1/2 40/1/2 38/1/2
f 40/1/2 37/1/2 39/1/2
f 33/1/5 39/1/5 35/1/5
f 39/1/5 33/1/5 40/1/5
f 40/1/6 34/1/6 38/1/6
f 34/1/6 40/1/6 33/1/6
f 33/1/3 1/1/3 8/1/3
f 1/1/3 33/1/3 34/1/3
f 33/1/4 38/1/4 34/1/4
f 38/1/4 33/1/4 40/1/4
f 38/1/1 1/1/1 34/1/1
f 1/1/1 38/1/1 3/1/1
f 6/1/5 33/1/5 8/1/5
f 33/1/5 6/1/5 40/1/5
f 6/1/6 1/1/6 3/1/6
f 1/1/6 6/1/6 8/1/6
f 38/1/2 6/1/2 3/1/2
f 6/1/2 38/1/2 40/1/2
f 43/2/3 42/2/3 41/2/3
f 42/2/3 43/2/3 44/2/3
f 43/2/4 45/2/4 44/2/4
f 45/2/4 43/2/4 46/2/4
f 45/2/1 42/2/1 44/2/1
f 42/2/1 45/2/1 47/2/1
f 48/2/5 43/2/5 41/2/5
f 43/2/5 48/2/5 46/2/5
f 48/2/6 42/2/6 47/2/6
f 42/2/6 48/2/6 41/2/6
f 45/2/2 48/2/2 47/2/2
f 48/2/2 45/2/2 46/2/2

