# Created by Kenney (www.kenney.nl)

mtllib dark-wood-bench.mtl

v 1 -4 -1.5
v 1.5 -4 -1.5
v 1 -3 -1.5
v 1.5 -3 -1.5
v 1.5 -3 1.5
v 1 -3 1.5
v 1.5 -4 1.5
v 1 -4 1.5
v -1 -4 1.5
v -1 -4 -1.5
v -1.5 -4 1.5
v -1.5 -4 -1.5
v -1.5 -3 -1.5
v -1 -3 -1.5
v -1.5 -3 1.5
v -1 -3 1.5
v 2 0 2
v 2 0 -2
v -2 0 2
v -2 0 -2
v -2 1 -2
v -2 1 2
v 2 1 -2
v 2 1 2
v 1 -3 1
v 1 -3 -1
v -1 -3 1
v -1 -3 -1
v -1 0 -1
v -1 0 1
v 1 0 -1
v 1 0 1
v 0 -4 1.5
v 0 -4 -1.5
v 0 -3 -1.5
v 0 -3 1.5

vn 0 0 -1
vn 0 1 0
vn 0 -1 0
vn -1 0 0
vn 0 0 1
vn 1 0 0

vt 0.0625 0.0625

usemtl palette(Clone)

f 3/1/1 2/1/1 1/1/1
f 2/1/1 3/1/1 4/1/1
f 3/1/2 5/1/2 4/1/2
f 5/1/2 3/1/2 6/1/2
f 8/1/3 2/1/3 7/1/3
f 2/1/3 8/1/3 1/1/3
f 8/1/4 3/1/4 1/1/4
f 3/1/4 8/1/4 6/1/4
f 7/1/5 6/1/5 8/1/5
f 6/1/5 7/1/5 5/1/5
f 5/1/6 2/1/6 4/1/6
f 2/1/6 5/1/6 7/1/6
f 11/1/3 10/1/3 9/1/3
f 10/1/3 11/1/3 12/1/3
f 13/1/1 10/1/1 12/1/1
f 10/1/1 13/1/1 14/1/1
f 11/1/4 13/1/4 12/1/4
f 13/1/4 11/1/4 15/1/4
f 13/1/2 16/1/2 14/1/2
f 16/1/2 13/1/2 15/1/2
f 9/1/5 15/1/5 11/1/5
f 15/1/5 9/1/5 16/1/5
f 16/1/6 10/1/6 14/1/6
f 10/1/6 16/1/6 9/1/6
f 19/1/3 18/1/3 17/1/3
f 18/1/3 19/1/3 20/1/3
f 19/1/4 21/1/4 20/1/4
f 21/1/4 19/1/4 22/1/4
f 21/1/1 18/1/1 20/1/1
f 18/1/1 21/1/1 23/1/1
f 24/1/5 19/1/5 17/1/5
f 19/1/5 24/1/5 22/1/5
f 24/1/6 18/1/6 23/1/6
f 18/1/6 24/1/6 17/1/6
f 21/1/2 24/1/2 23/1/2
f 24/1/2 21/1/2 22/1/2
f 27/1/3 26/1/3 25/1/3
f 26/1/3 27/1/3 28/1/3
f 27/1/4 29/1/4 28/1/4
f 29/1/4 27/1/4 30/1/4
f 29/1/1 26/1/1 28/1/1
f 26/1/1 29/1/1 31/1/1
f 32/1/5 27/1/5 25/1/5
f 27/1/5 32/1/5 30/1/5
f 32/1/6 26/1/6 31/1/6
f 26/1/6 32/1/6 25/1/6
f 29/1/2 32/1/2 31/1/2
f 32/1/2 29/1/2 30/1/2
f 9/1/3 34/1/3 33/1/3
f 34/1/3 9/1/3 10/1/3
f 9/1/4 14/1/4 10/1/4
f 14/1/4 9/1/4 16/1/4
f 14/1/1 34/1/1 10/1/1
f 34/1/1 14/1/1 35/1/1
f 36/1/5 9/1/5 33/1/5
f 9/1/5 36/1/5 16/1/5
f 36/1/6 34/1/6 35/1/6
f 34/1/6 36/1/6 33/1/6
f 14/1/2 36/1/2 35/1/2
f 36/1/2 14/1/2 16/1/2
f 33/1/3 1/1/3 8/1/3
f 1/1/3 33/1/3 34/1/3
f 33/1/4 35/1/4 34/1/4
f 35/1/4 33/1/4 36/1/4
f 35/1/1 1/1/1 34/1/1
f 1/1/1 35/1/1 3/1/1
f 6/1/5 33/1/5 8/1/5
f 33/1/5 6/1/5 36/1/5
f 6/1/6 1/1/6 3/1/6
f 1/1/6 6/1/6 8/1/6
f 35/1/2 6/1/2 3/1/2
f 6/1/2 35/1/2 36/1/2

